<svg width="85" height="85" viewBox="0 0 85 85" fill="none" xmlns="http://www.w3.org/2000/svg">
<path fill-rule="evenodd" clip-rule="evenodd" d="M65.3158 4.47368H19.6842C11.2837 4.47368 4.47368 11.2837 4.47368 19.6842V65.3158C4.47368 73.7163 11.2837 80.5263 19.6842 80.5263H65.3158C73.7163 80.5263 80.5263 73.7163 80.5263 65.3158V19.6842C80.5263 11.2837 73.7163 4.47368 65.3158 4.47368ZM19.6842 0C8.81292 0 0 8.81292 0 19.6842V65.3158C0 76.1871 8.81292 85 19.6842 85H65.3158C76.1871 85 85 76.1871 85 65.3158V19.6842C85 8.81292 76.1871 0 65.3158 0H19.6842Z" fill="#356C9E"/>
<path fill-rule="evenodd" clip-rule="evenodd" d="M66.7282 11.3236C66.7695 11.3219 66.7642 11.3256 66.724 11.3238C66.7254 11.3237 66.7268 11.3236 66.7282 11.3236ZM65.1689 9.33932C65.1691 9.3392 65.1682 9.34365 65.1656 9.35303C65.1675 9.34414 65.1687 9.33944 65.1689 9.33932ZM63.9753 11.9143C63.5674 12.7618 63.0981 13.7755 62.6267 14.948C60.3006 20.7341 58.0416 30.1076 61.6433 43.7482C64.8898 56.0442 61.042 63.7373 56.5703 68.421C54.2871 70.8124 51.7906 72.4651 49.8546 73.5203C49.0938 73.9351 48.426 74.254 47.9011 74.4865C42.6309 69.2621 41.5507 62.3968 42.322 55.5798C43.1435 48.3195 46.0379 41.4929 47.7584 37.6473C48.0126 37.0792 48.2887 36.3125 48.2484 35.5111C48.2263 35.071 48.1006 34.4789 47.6764 33.936C47.2297 33.3643 46.6291 33.0734 46.082 32.9646C45.1584 32.7809 44.3142 33.0896 43.8553 33.2874C43.2969 33.5282 42.7179 33.8744 42.149 34.271C39.8938 35.8434 36.8536 38.8765 34.0957 42.8515C29.4731 49.5138 25.2986 59.3522 27.3831 70.06C25.2461 68.2298 23.1227 65.8668 21.3156 63.1049C18.0883 58.1726 16.0166 52.1935 16.5321 46.0479C17.5182 34.2922 28.2821 20.2975 63.9753 11.9143ZM47.4082 77.1212L48.1282 79.2667L46.8922 79.676L45.9108 78.8248C38.2191 72.1527 36.8883 63.1083 37.7973 55.0746C38.391 49.8271 39.9517 44.8509 41.4466 40.95C40.2934 42.1751 39.0524 43.6778 37.8446 45.4185C32.7707 52.7314 28.7746 63.4898 33.4983 74.5168L35.8043 79.9L30.453 77.4574C25.982 75.4167 21.1073 71.0862 17.498 65.57C13.8719 60.0281 11.3747 53.0623 11.9946 45.6722C13.2603 30.5836 27.1839 15.4581 65.0776 7.02072C65.5662 6.91192 66.0684 6.82362 66.5398 6.80422C66.9473 6.78746 67.7039 6.79948 68.42 7.23678C69.3421 7.79992 69.6719 8.71418 69.6982 9.45561C69.7196 10.059 69.5527 10.6012 69.4344 10.9362C69.2224 11.5371 68.8526 12.2908 68.4881 13.0337C68.4348 13.1425 68.3815 13.2511 68.3289 13.3589C67.8822 14.2739 67.3678 15.3505 66.8552 16.6256C64.8355 21.6496 62.7282 30.0291 66.0475 42.6006C69.7219 56.5167 65.3511 65.7969 59.874 71.5337C57.1828 74.3524 54.2723 76.2717 52.0449 77.4858C50.9277 78.0948 49.9717 78.5322 49.2853 78.8206C48.9417 78.965 48.6647 79.0724 48.4677 79.1458C48.3691 79.1825 48.2904 79.2106 48.2333 79.2307C48.2047 79.2407 48.1816 79.2487 48.164 79.2547L48.1418 79.2622L48.1339 79.2648L48.1308 79.2659C48.1294 79.2663 48.1282 79.2667 47.4082 77.1212ZM45.7836 37.3946C45.7832 37.3956 45.769 37.4007 45.7424 37.4069C45.7708 37.3966 45.7841 37.3935 45.7836 37.3946Z" fill="#356C9E"/>
</svg>
