<?xml version="1.0" encoding="UTF-8" standalone="no"?>
<svg
   xmlns="http://www.w3.org/2000/svg"
   width="52"
   height="52"
   viewBox="0 0 52 52"
   fill="none"
   version="1.1"
   id="svg4">

  <path
     style="fill:#ffffff"
     d="m 35.2182,9.0279679 c -0.4018,0 -0.7564,0.21426 -0.9691,0.54754 l -0.1655,0.3571 L 21.84,37.666888 c -0.3782,0.6903 -0.6145,1.4521 -0.6145,2.2854 0,2.6424 2.1272,4.785 4.7509,4.785 2.2691,0 4.1836,-1.6188 4.6327,-3.7852 l 0.0236,-0.0714 L 36.4,10.218278 C 36.4,9.5517079 35.88,9.0279679 35.2182,9.0279679 Z M 1.0169492e-7,18.550488 4.7272701,23.311688 C 11.5345,16.455508 20.7764,13.598758 29.6164,14.693848 L 32.4291,8.3137809 C 21.0127,6.2664479 8.8400001,9.6707379 1.0169492e-7,18.550488 Z M 47.2727,23.311688 52,18.550488 c -3.8764,-3.90425 -8.3909,-6.71339 -13.2127,-8.49885 l -1.2528,6.71335 c 3.5455,1.476 6.8546,3.6424 9.7382,6.5467 z m -9.4545,9.5225 4.7273,-4.7612 c -1.891,-1.9045 -4.0182,-3.3805 -6.2873,-4.4994 l -1.3,6.9514 c 0.9927,0.6428 1.9618,1.4046 2.86,2.3092 z m -28.3636499,-4.7612 4.7272499,4.7612 c 2.6709,-2.6901 6.0509,-4.2613 9.5255,-4.7612 l 3.0254,-6.8562 c -6.2163,-0.1905 -12.5272,2.0711 -17.2781499,6.8562 z"
     id="path2" />
</svg>
