<svg width="52" height="37" viewBox="0 0 52 37" fill="none" xmlns="http://www.w3.org/2000/svg">
<path d="M35.2182 1.29068C34.8164 1.29068 34.4618 1.50494 34.2491 1.83822L34.0836 2.19532L21.84 29.9296C21.4618 30.6199 21.2255 31.3817 21.2255 32.215C21.2255 34.8574 23.3527 37 25.9764 37C28.2455 37 30.16 35.3812 30.6091 33.2148L30.6327 33.1434L36.4 2.48099C36.4 1.81442 35.88 1.29068 35.2182 1.29068V1.29068ZM0 10.8132L4.72727 15.5744C11.5345 8.71822 20.7764 5.86147 29.6164 6.95656L32.4291 0.576493C21.0127 -1.47084 8.84 1.93345 0 10.8132ZM47.2727 15.5744L52 10.8132C48.1236 6.90895 43.6091 4.09981 38.7873 2.31435L37.5345 9.0277C41.08 10.5037 44.3891 12.6701 47.2727 15.5744ZM37.8182 25.0969L42.5455 20.3357C40.6545 18.4312 38.5273 16.9552 36.2582 15.8363L34.9582 22.7877C35.9509 23.4305 36.92 24.1923 37.8182 25.0969ZM9.45455 20.3357L14.1818 25.0969C16.8527 22.4068 20.2327 20.8356 23.7073 20.3357L26.7327 13.4795C20.5164 13.289 14.2055 15.5506 9.45455 20.3357V20.3357Z" fill="white"/>
</svg>
