<svg width="52" height="52" viewBox="0 0 52 52" fill="none" xmlns="http://www.w3.org/2000/svg">
<path d="M26 20.2222C22.8222 20.2222 20.2222 22.8222 20.2222 26C20.2222 29.1778 22.8222 31.7778 26 31.7778C29.1778 31.7778 31.7778 29.1778 31.7778 26C31.7778 22.8222 29.1778 20.2222 26 20.2222ZM46.2222 0H5.77778C2.57111 0 0 2.6 0 5.77778V46.2222C0 49.4 2.57111 52 5.77778 52H46.2222C49.4289 52 52 49.4 52 46.2222V5.77778C52 2.6 49.4289 0 46.2222 0ZM41.1667 26C41.1667 26.6644 41.1089 27.3289 41.0222 27.9644L45.2978 31.3156C45.6733 31.6333 45.7889 32.1822 45.5289 32.6156L41.4844 39.6067C41.2244 40.04 40.7044 40.2133 40.2422 40.04L35.2156 38.0178C34.1756 38.8267 33.02 39.4911 31.8067 40.0111L31.0556 45.3556C30.9689 45.8467 30.5356 46.2222 30.0444 46.2222H21.9556C21.4644 46.2222 21.0311 45.8467 20.9444 45.3844L20.1933 40.04C18.9511 39.52 17.8244 38.8556 16.7844 38.0467L11.7578 40.0689C11.2956 40.2422 10.7756 40.0689 10.5156 39.6356L6.47111 32.6444C6.21111 32.2111 6.32667 31.6622 6.70222 31.3444L10.9778 27.9933C10.8911 27.3289 10.8333 26.6644 10.8333 26C10.8333 25.3356 10.8911 24.6711 10.9778 24.0356L6.70222 20.6844C6.32667 20.3667 6.21111 19.8178 6.47111 19.3844L10.5156 12.3933C10.7756 11.96 11.2956 11.7867 11.7578 11.96L16.7844 13.9822C17.8244 13.1733 18.98 12.5089 20.1933 11.9889L20.9444 6.64444C21.0311 6.15333 21.4644 5.77778 21.9556 5.77778H30.0444C30.5356 5.77778 30.9689 6.15333 31.0556 6.61556L31.8067 11.96C33.0489 12.48 34.1756 13.1444 35.2156 13.9533L40.2422 11.9311C40.7044 11.7578 41.2244 11.9311 41.4844 12.3644L45.5289 19.3556C45.7889 19.7889 45.6733 20.3378 45.2978 20.6556L41.0222 24.0067C41.1089 24.6711 41.1667 25.3356 41.1667 26V26Z" fill="white"/>
</svg>
